<svg width="466" height="466" viewBox="0 0 466 466" fill="none" xmlns="http://www.w3.org/2000/svg">
<g clip-path="url(#clip0_4_10)">
<path d="M427.198 388.546C417.389 388.546 409.411 396.508 409.411 406.295C409.411 416.082 417.39 424.044 427.198 424.044C437.005 424.044 444.985 416.082 444.985 406.295C444.985 396.508 437.005 388.546 427.198 388.546ZM427.198 412.07C424.007 412.07 421.411 409.479 421.411 406.295C421.411 403.111 424.007 400.52 427.198 400.52C430.388 400.52 432.985 403.111 432.985 406.295C432.985 409.479 430.389 412.07 427.198 412.07Z" fill="#707070"/>
<path d="M199.162 388.546C189.353 388.546 181.374 396.508 181.374 406.295C181.374 416.082 189.353 424.044 199.162 424.044C208.97 424.044 216.949 416.082 216.949 406.295C216.949 396.508 208.97 388.546 199.162 388.546ZM199.162 412.07C195.971 412.07 193.374 409.479 193.374 406.295C193.374 403.111 195.971 400.52 199.162 400.52C202.353 400.52 204.949 403.111 204.949 406.295C204.949 409.479 202.354 412.07 199.162 412.07Z" fill="#707070"/>
<path d="M427.198 366.659H367.085V353.996H403.003H415.003H433.198V251.531L415.003 237.592V100.277H405.792V61.8912H369.282V100.277H287.052L240.293 178.36L92.817 36.6384C91.47 33.3704 89.431 30.3918 86.761 27.8801C81.707 23.1273 74.844 20.6417 67.923 21.0418C67.185 21.0857 66.433 21.1975 65.615 21.3871L17.134 32.6898C10.783 34.1706 6.349 39.7487 6.349 46.2567V103.515H18.349V60.106L24.221 61.4751V126.193H5.542V193.537H17.813V200.382C7.577 203.042 0 212.344 0 223.38C0 236.483 10.684 247.142 23.813 247.142C36.942 247.142 47.626 236.482 47.626 223.381H35.626C35.626 229.881 30.327 235.168 23.813 235.168C17.298 235.168 12 229.881 12 223.381C12 216.88 17.299 211.593 23.813 211.593H29.813V193.536H42.084V126.192H36.22V64.2721L65.622 71.1263C66.433 71.3139 67.185 71.4267 67.919 71.4696C68.409 71.4985 68.9 71.5135 69.39 71.5135C69.5 71.5135 69.611 71.5065 69.722 71.5055L212.074 229.433V300.548H186.665V353.996H212.074H224.074H259.992V366.659H199.16C177.257 366.659 159.438 384.44 159.438 406.296C159.438 428.152 177.256 445.933 199.16 445.933H427.198C449.1 445.933 466.919 428.152 466.919 406.296C466.919 384.44 449.101 366.659 427.198 366.659ZM415.003 252.689L421.198 257.435V342.022H415.003V252.689ZM212.074 342.021H198.665V312.521H212.074V342.021ZM381.282 73.8655H393.792V82.3672H381.282V73.8655ZM381.282 94.3405H393.792V100.276H381.282V94.3405ZM30.085 181.562H17.542V138.167H30.085V181.562ZM68.624 59.5163C68.621 59.5163 68.539 59.5103 68.347 59.4654L19.864 48.1626C18.97 47.9551 18.348 47.1708 18.348 46.2567C18.348 45.3427 18.97 44.5584 19.864 44.3508L68.34 33.0481C68.539 33.0022 68.621 32.9962 68.628 32.9952C68.898 32.9792 69.167 32.9722 69.435 32.9722C72.827 32.9722 76.031 34.2405 78.531 36.5925C81.225 39.127 82.71 42.5586 82.71 46.2567C82.71 49.9548 81.226 53.3854 78.531 55.92C75.832 58.4555 72.319 59.7408 68.624 59.5163ZM217.034 217.029L82.545 67.8254C84.049 66.9154 85.466 65.8507 86.761 64.6333C89.949 61.6337 92.246 57.9736 93.527 53.9442L233.649 188.598L217.034 217.029ZM224.074 342.021V334.304H256.218V322.329H224.074V300.548V228.789L293.86 112.25H369.282H403.003V228.398V322.328H271.308V334.303H403.003V342.02H367.085H259.992H224.074V342.021ZM355.085 353.995V366.658H271.992V353.995H355.085ZM199.16 433.958C183.874 433.958 171.438 421.548 171.438 406.295C171.438 391.042 183.874 378.632 199.16 378.632C214.446 378.632 226.882 391.042 226.882 406.295C226.882 421.548 214.446 433.958 199.16 433.958ZM227.57 433.958C229.41 432.077 231.061 430.014 232.501 427.8H393.856C395.295 430.014 396.947 432.077 398.787 433.958H227.57ZM245.656 415.826H237.714C238.472 412.77 238.882 409.58 238.882 406.295C238.882 402.825 238.429 399.458 237.585 396.249H245.656C244.163 399.193 243.316 402.517 243.316 406.038C243.316 409.558 244.163 412.881 245.656 415.826ZM255.316 406.037C255.316 400.639 259.716 396.248 265.126 396.248C270.534 396.248 274.935 400.638 274.935 406.037C274.935 411.435 270.535 415.826 265.126 415.826C259.717 415.826 255.316 411.435 255.316 406.037ZM284.595 396.249H293.71C292.216 399.193 291.37 402.517 291.37 406.038C291.37 409.558 292.216 412.881 293.71 415.827H284.595C286.088 412.882 286.935 409.558 286.935 406.038C286.935 402.517 286.088 399.193 284.595 396.249ZM303.37 406.037C303.37 400.639 307.77 396.248 313.179 396.248C318.588 396.248 322.989 400.638 322.989 406.037C322.989 411.435 318.589 415.826 313.179 415.826C307.771 415.826 303.37 411.435 303.37 406.037ZM332.648 396.249H341.138C339.645 399.193 338.798 402.517 338.798 406.038C338.798 409.558 339.645 412.881 341.138 415.827H332.648C334.142 412.882 334.989 409.558 334.989 406.038C334.989 402.517 334.142 399.193 332.648 396.249ZM350.798 406.037C350.798 400.639 355.198 396.248 360.608 396.248C366.018 396.248 370.418 400.638 370.418 406.037C370.418 411.435 366.018 415.826 360.608 415.826C355.198 415.826 350.798 411.435 350.798 406.037ZM380.077 396.249H388.772C387.928 399.459 387.475 402.826 387.475 406.295C387.475 409.58 387.885 412.77 388.643 415.826H380.077C381.569 412.881 382.417 409.557 382.417 406.037C382.417 402.516 381.569 399.193 380.077 396.249ZM394.189 384.274H232.169C230.811 382.254 229.268 380.369 227.57 378.633H259.992H367.085H398.787C397.09 380.369 395.548 382.253 394.189 384.274ZM427.198 433.958C411.912 433.958 399.475 421.548 399.475 406.295C399.475 391.042 411.912 378.632 427.198 378.632C442.483 378.632 454.919 391.042 454.919 406.295C454.919 421.548 442.483 433.958 427.198 433.958Z" fill="#707070"/>
<path d="M336.413 274.103H384.95V240.502H336.413V274.103ZM348.413 252.476H372.95V262.128H348.413V252.476Z" fill="#707070"/>
<path d="M384.95 121.899H302.212L236.424 233.148H384.95V121.899ZM325.505 221.174H257.439L309.066 133.875H325.505V221.174V221.174ZM372.95 221.174H337.505V133.875H372.95V221.174Z" fill="#707070"/>
</g>
<defs>
<clipPath id="clip0_4_10">
<rect width="466" height="466" fill="white"/>
</clipPath>
</defs>
</svg>
